<?xml version="1.0" standalone="no"?>
<!DOCTYPE svg PUBLIC "-//W3C//DTD SVG 20010904//EN"
 "http://www.w3.org/TR/2001/REC-SVG-20010904/DTD/svg10.dtd">
<svg version="1.0" xmlns="http://www.w3.org/2000/svg"
 width="512.000000pt" height="512.000000pt" viewBox="0 0 512.000000 512.000000"
 preserveAspectRatio="xMidYMid meet">
<metadata>
Created by potrace 1.16, written by Peter Selinger 2001-2019
</metadata>
<g transform="translate(0.000000,512.000000) scale(0.100000,-0.100000)"
fill="#FFFFFF" stroke="none">
<path d="M180 4620 c-27 -27 -27 -93 0 -120 19 -19 33 -20 285 -20 l264 0 10
-37 c28 -106 591 -2513 591 -2525 0 -8 -16 -20 -35 -27 -54 -19 -130 -101
-154 -166 -18 -47 -21 -78 -21 -205 0 -183 15 -234 90 -310 51 -50 134 -90
190 -90 l29 0 -32 -62 c-31 -58 -32 -67 -32 -177 0 -108 2 -120 29 -176 38
-77 120 -158 193 -193 53 -24 69 -27 173 -27 104 0 120 3 173 27 73 35 155
116 193 193 27 56 29 68 29 176 0 110 -1 119 -32 177 l-32 62 789 0 789 0 -32
-62 c-31 -58 -32 -67 -32 -177 0 -108 2 -120 29 -176 38 -77 120 -158 193
-193 53 -24 69 -27 173 -27 104 0 120 3 173 27 73 35 155 116 193 193 27 56
29 68 29 176 0 110 -1 119 -32 177 l-32 62 175 0 c161 0 176 2 194 20 27 27
27 93 0 120 -20 20 -33 20 -1632 20 -933 0 -1630 4 -1652 10 -49 11 -85 37
-111 81 -17 29 -20 52 -20 149 0 97 3 120 20 149 26 44 62 70 111 81 22 6 688
10 1572 10 1483 0 1533 1 1551 19 22 22 5 -52 236 1055 102 489 185 906 185
926 0 20 -6 45 -14 56 -14 19 -49 19 -1952 24 l-1938 5 -48 205 c-121 516
-130 552 -149 571 -18 18 -39 19 -339 19 -307 0 -321 -1 -340 -20z m1522
-1075 c9 -71 17 -142 17 -157 l1 -28 -275 0 -275 0 -5 23 c-3 12 -19 79 -35
149 -17 70 -30 132 -30 138 0 7 90 9 292 8 l293 -3 17 -130z m781 13 c4 -66 7
-139 7 -160 l0 -38 -297 2 -298 3 -17 130 c-9 72 -17 142 -17 158 l-1 27 308
0 309 0 6 -122z m784 0 c-4 -66 -7 -138 -7 -160 l0 -38 -300 0 -300 0 0 38 c0
22 -3 94 -7 160 l-6 122 313 0 313 0 -6 -122z m792 95 c0 -16 -8 -86 -17 -158
l-17 -130 -298 -3 -297 -2 0 38 c0 21 3 94 7 160 l6 122 309 0 308 0 -1 -27z
m711 12 c0 -8 -13 -79 -30 -157 -16 -77 -30 -143 -30 -145 0 -1 -115 -3 -255
-3 -230 0 -255 2 -255 16 0 24 31 276 35 292 3 9 66 12 270 12 229 0 265 -2
265 -15z m-3008 -600 c9 -71 17 -142 17 -157 l1 -28 -248 0 -249 0 -33 143
c-18 78 -35 150 -38 160 -4 16 12 17 264 15 l269 -3 17 -130z m741 13 c4 -66
7 -139 7 -160 l0 -38 -277 2 -278 3 -17 130 c-9 72 -17 142 -17 158 l-1 27
288 0 289 0 6 -122z m744 0 c-4 -66 -7 -138 -7 -160 l0 -38 -280 0 -280 0 0
38 c0 22 -3 94 -7 160 l-6 122 293 0 293 0 -6 -122z m752 95 c0 -16 -8 -86
-17 -158 l-17 -130 -278 -3 -277 -2 0 38 c0 21 3 94 7 160 l6 122 289 0 288 0
-1 -27z m671 12 c0 -8 -13 -79 -30 -157 -16 -77 -30 -143 -30 -145 0 -1 -106
-3 -235 -3 -211 0 -235 2 -235 16 0 24 31 276 35 292 3 9 62 12 250 12 211 0
245 -2 245 -15z m-2848 -600 c9 -71 17 -142 17 -158 l1 -27 -222 2 -222 3 -31
130 c-17 72 -35 142 -38 158 l-7 27 242 -2 243 -3 17 -130z m701 13 c4 -66 7
-139 7 -160 l0 -38 -257 2 -258 3 -17 130 c-9 72 -17 142 -17 158 l-1 27 268
0 269 0 6 -122z m704 0 c-4 -66 -7 -138 -7 -160 l0 -38 -260 0 -260 0 0 38 c0
22 -3 94 -7 160 l-6 122 273 0 273 0 -6 -122z m712 95 c0 -16 -8 -86 -17 -158
l-17 -130 -258 -3 -257 -2 0 38 c0 21 3 94 7 160 l6 122 269 0 268 0 -1 -27z
m631 12 c0 -8 -13 -79 -30 -157 -16 -77 -30 -143 -30 -145 0 -1 -97 -3 -215
-3 -192 0 -215 2 -215 16 0 24 31 276 35 292 3 9 58 12 230 12 194 0 225 -2
225 -15z m-2688 -600 c9 -71 17 -142 17 -157 l1 -28 -194 0 c-177 0 -195 2
-200 18 -12 41 -66 275 -66 288 0 12 35 14 212 12 l213 -3 17 -130z m658 97
c0 -22 3 -94 7 -161 l6 -121 -239 2 -239 3 -17 130 c-9 72 -17 142 -17 158
l-1 27 250 0 250 0 0 -38z m670 0 c0 -22 -3 -94 -7 -160 l-6 -122 -239 0 -238
0 0 38 c0 22 -3 94 -7 160 l-6 122 251 0 252 0 0 -38z m669 11 c0 -16 -8 -86
-17 -158 l-17 -130 -238 -3 -237 -2 0 38 c0 21 3 94 7 160 l6 122 249 0 248 0
-1 -27z m591 12 c0 -8 -13 -79 -30 -157 -16 -77 -30 -143 -30 -145 0 -1 -88
-3 -195 -3 -174 0 -195 2 -195 16 0 24 31 276 35 292 3 9 54 12 210 12 176 0
205 -2 205 -15z m-2622 -1131 c153 -63 191 -267 71 -381 -146 -138 -388 -36
-389 165 0 130 99 231 228 232 29 0 69 -7 90 -16z m2240 0 c85 -35 142 -120
142 -214 0 -129 -101 -230 -230 -230 -202 0 -306 242 -167 389 64 67 171 90
255 55z"/>
<path d="M1700 940 c-13 -13 -20 -33 -20 -60 0 -53 27 -80 80 -80 27 0 47 7
60 20 13 13 20 33 20 60 0 53 -27 80 -80 80 -27 0 -47 -7 -60 -20z"/>
<path d="M3940 940 c-13 -13 -20 -33 -20 -60 0 -53 27 -80 80 -80 53 0 80 27
80 80 0 53 -27 80 -80 80 -27 0 -47 -7 -60 -20z"/>
</g>
</svg>
